<mxfile host="app.diagrams.net" modified="2024-05-24T11:16:22.043Z" agent="Mozilla/5.0 (Windows NT 10.0; Win64; x64) AppleWebKit/537.36 (KHTML, like Gecko) Chrome/125.0.0.0 Safari/537.36" etag="kTUqKQiONqxTc4HDJMlp" version="24.4.6" type="github">
  <diagram name="第 1 页" id="2B9-g3zwyfel9pQjpdhB">
    <mxGraphModel dx="574" dy="295" grid="1" gridSize="10" guides="1" tooltips="1" connect="1" arrows="1" fold="1" page="1" pageScale="1" pageWidth="827" pageHeight="1169" math="0" shadow="0">
      <root>
        <mxCell id="0" />
        <mxCell id="1" parent="0" />
        <mxCell id="FPaeK-ZUEYd0aDJhkk1g-1" value="" style="swimlane;childLayout=stackLayout;resizeParent=1;resizeParentMax=0;startSize=20;horizontal=0;horizontalStack=1;" parent="1" vertex="1">
          <mxGeometry x="160" y="170" width="400" height="600" as="geometry">
            <mxRectangle x="160" y="170" width="40" height="50" as="alternateBounds" />
          </mxGeometry>
        </mxCell>
        <mxCell id="FPaeK-ZUEYd0aDJhkk1g-2" value="数据处理者" style="swimlane;startSize=20;" parent="FPaeK-ZUEYd0aDJhkk1g-1" vertex="1">
          <mxGeometry x="20" width="120" height="600" as="geometry" />
        </mxCell>
        <mxCell id="FPaeK-ZUEYd0aDJhkk1g-5" value="&lt;font style=&quot;font-size: 11px;&quot;&gt;公共参数&lt;/font&gt;&lt;div style=&quot;font-size: 8px;&quot;&gt;&lt;font style=&quot;font-size: 8px;&quot;&gt;par：{x&lt;sub style=&quot;&quot;&gt;1&lt;/sub&gt;,x&lt;sub style=&quot;&quot;&gt;2&lt;/sub&gt;,k&lt;sub style=&quot;&quot;&gt;1&lt;/sub&gt;,k&lt;sub style=&quot;&quot;&gt;2&lt;/sub&gt;,e(k&lt;sub style=&quot;&quot;&gt;1&lt;/sub&gt;,k&lt;sub style=&quot;&quot;&gt;2&lt;/sub&gt;)}&lt;/font&gt;&lt;/div&gt;" style="rounded=0;whiteSpace=wrap;html=1;" parent="FPaeK-ZUEYd0aDJhkk1g-2" vertex="1">
          <mxGeometry x="5" y="30" width="110" height="30" as="geometry" />
        </mxCell>
        <mxCell id="FPaeK-ZUEYd0aDJhkk1g-12" value="&lt;span style=&quot;font-size: 10px;&quot;&gt;公钥pk&lt;sub&gt;A&lt;/sub&gt;，私钥sk&lt;sub&gt;A&lt;/sub&gt;&lt;/span&gt;" style="rounded=0;whiteSpace=wrap;html=1;" parent="FPaeK-ZUEYd0aDJhkk1g-2" vertex="1">
          <mxGeometry x="7.5" y="80" width="105" height="20" as="geometry" />
        </mxCell>
        <mxCell id="FPaeK-ZUEYd0aDJhkk1g-13" value="" style="endArrow=classic;html=1;rounded=0;" parent="FPaeK-ZUEYd0aDJhkk1g-2" edge="1">
          <mxGeometry width="50" height="50" relative="1" as="geometry">
            <mxPoint x="59.75999999999999" y="100" as="sourcePoint" />
            <mxPoint x="59.75999999999999" y="140" as="targetPoint" />
          </mxGeometry>
        </mxCell>
        <mxCell id="FPaeK-ZUEYd0aDJhkk1g-14" value="&lt;font style=&quot;font-size: 11px;&quot;&gt;生成重加密密钥&lt;/font&gt;&lt;div style=&quot;&quot;&gt;&lt;span style=&quot;font-size: 9px;&quot;&gt;{sk&lt;sub&gt;A&lt;/sub&gt;,pk&lt;sub&gt;p&lt;/sub&gt;,pk&lt;/span&gt;&lt;span style=&quot;font-size: 7.5px;&quot;&gt;B&lt;/span&gt;&lt;font size=&quot;1&quot;&gt;}→rk&lt;sub&gt;&lt;font style=&quot;font-size: 8px;&quot;&gt;A→B&lt;/font&gt;&lt;/sub&gt;&lt;/font&gt;&lt;/div&gt;" style="rounded=0;whiteSpace=wrap;html=1;" parent="FPaeK-ZUEYd0aDJhkk1g-2" vertex="1">
          <mxGeometry x="5" y="140" width="110" height="30" as="geometry" />
        </mxCell>
        <mxCell id="FPaeK-ZUEYd0aDJhkk1g-26" value="&lt;span style=&quot;font-size: 8px;&quot;&gt;pk&lt;/span&gt;&lt;span style=&quot;font-size: 6.66667px;&quot;&gt;p&lt;/span&gt;" style="text;html=1;align=center;verticalAlign=middle;resizable=0;points=[];autosize=1;strokeColor=none;fillColor=none;" parent="FPaeK-ZUEYd0aDJhkk1g-2" vertex="1">
          <mxGeometry x="80" y="100" width="40" height="30" as="geometry" />
        </mxCell>
        <mxCell id="FPaeK-ZUEYd0aDJhkk1g-30" value="&lt;p style=&quot;line-height: 50%;&quot;&gt;&lt;font style=&quot;font-size: 6px;&quot;&gt;明文M，以患者A的信息为例，患者id：1367，姓名：张三，年龄：35，健康状况：发烧&lt;/font&gt;&lt;/p&gt;" style="rounded=0;whiteSpace=wrap;html=1;align=left;" parent="FPaeK-ZUEYd0aDJhkk1g-2" vertex="1">
          <mxGeometry x="3.75" y="190" width="112.5" height="30" as="geometry" />
        </mxCell>
        <mxCell id="FPaeK-ZUEYd0aDJhkk1g-32" value="" style="endArrow=classic;html=1;rounded=0;" parent="FPaeK-ZUEYd0aDJhkk1g-2" edge="1">
          <mxGeometry width="50" height="50" relative="1" as="geometry">
            <mxPoint x="59.76999999999998" y="220" as="sourcePoint" />
            <mxPoint x="60" y="240" as="targetPoint" />
          </mxGeometry>
        </mxCell>
        <mxCell id="FPaeK-ZUEYd0aDJhkk1g-33" value="&lt;font style=&quot;font-size: 6px;&quot;&gt;编码&lt;/font&gt;" style="text;html=1;align=center;verticalAlign=middle;resizable=0;points=[];autosize=1;strokeColor=none;fillColor=none;" parent="FPaeK-ZUEYd0aDJhkk1g-2" vertex="1">
          <mxGeometry x="53" y="214" width="40" height="30" as="geometry" />
        </mxCell>
        <mxCell id="FPaeK-ZUEYd0aDJhkk1g-34" value="&lt;font style=&quot;font-size: 6px;&quot;&gt;医疗信息m，38752864&lt;/font&gt;" style="rounded=0;whiteSpace=wrap;html=1;" parent="FPaeK-ZUEYd0aDJhkk1g-2" vertex="1">
          <mxGeometry x="7.5" y="240" width="105" height="20" as="geometry" />
        </mxCell>
        <mxCell id="FPaeK-ZUEYd0aDJhkk1g-37" value="" style="rounded=0;whiteSpace=wrap;html=1;dashed=1;" parent="FPaeK-ZUEYd0aDJhkk1g-2" vertex="1">
          <mxGeometry x="5" y="270" width="110" height="60" as="geometry" />
        </mxCell>
        <mxCell id="FPaeK-ZUEYd0aDJhkk1g-35" value="" style="endArrow=classic;html=1;rounded=0;" parent="FPaeK-ZUEYd0aDJhkk1g-2" edge="1">
          <mxGeometry width="50" height="50" relative="1" as="geometry">
            <mxPoint x="59.76999999999998" y="260" as="sourcePoint" />
            <mxPoint x="60" y="280" as="targetPoint" />
          </mxGeometry>
        </mxCell>
        <mxCell id="FPaeK-ZUEYd0aDJhkk1g-36" value="&lt;font style=&quot;font-size: 6px;&quot;&gt;用pk&lt;sub&gt;A&lt;/sub&gt;加密&lt;/font&gt;" style="text;html=1;align=center;verticalAlign=middle;resizable=0;points=[];autosize=1;strokeColor=none;fillColor=none;" parent="FPaeK-ZUEYd0aDJhkk1g-2" vertex="1">
          <mxGeometry x="55" y="257" width="50" height="30" as="geometry" />
        </mxCell>
        <mxCell id="FPaeK-ZUEYd0aDJhkk1g-38" value="&lt;font style=&quot;font-size: 8px;&quot;&gt;C&lt;sub&gt;1&lt;/sub&gt;:&lt;/font&gt;&lt;font style=&quot;font-size: 7px;&quot;&gt;95123654&lt;/font&gt;&lt;font style=&quot;font-size: 6px;&quot;&gt;,&lt;/font&gt;&lt;font style=&quot;font-size: 7px;&quot;&gt;&lt;span style=&quot;font-size: 8px;&quot;&gt;C&lt;/span&gt;&lt;sub&gt;2&lt;/sub&gt;&lt;span style=&quot;font-size: 8px;&quot;&gt;:&lt;/span&gt;65423345&lt;/font&gt;&lt;div style=&quot;font-size: 11px; line-height: 50%;&quot;&gt;&lt;font style=&quot;font-size: 8px;&quot;&gt;C&lt;sub&gt;3&lt;/sub&gt;:&lt;/font&gt;&lt;font style=&quot;font-size: 7px;&quot;&gt;15756319&lt;/font&gt;&lt;font style=&quot;font-size: 6px;&quot;&gt;,&lt;/font&gt;&lt;font style=&quot;font-size: 7px;&quot;&gt;&lt;span style=&quot;font-size: 8px;&quot;&gt;C&lt;/span&gt;&lt;sub&gt;4&lt;/sub&gt;&lt;span style=&quot;font-size: 8px;&quot;&gt;:&lt;/span&gt;97746515&lt;/font&gt;&lt;/div&gt;" style="rounded=0;whiteSpace=wrap;html=1;" parent="FPaeK-ZUEYd0aDJhkk1g-2" vertex="1">
          <mxGeometry x="7.5" y="280" width="105" height="25" as="geometry" />
        </mxCell>
        <mxCell id="FPaeK-ZUEYd0aDJhkk1g-39" value="&lt;font style=&quot;font-size: 8px;&quot;&gt;c&lt;sub&gt;A&lt;/sub&gt;={c&lt;sub&gt;1&lt;/sub&gt;,c&lt;sub&gt;2&lt;/sub&gt;,c&lt;sub&gt;3&lt;/sub&gt;,c&lt;sub&gt;4&lt;/sub&gt;}&lt;/font&gt;" style="rounded=0;whiteSpace=wrap;html=1;" parent="FPaeK-ZUEYd0aDJhkk1g-2" vertex="1">
          <mxGeometry x="22.5" y="308" width="75" height="20" as="geometry" />
        </mxCell>
        <mxCell id="FPaeK-ZUEYd0aDJhkk1g-52" value="" style="endArrow=none;dashed=1;html=1;dashPattern=1 3;strokeWidth=2;rounded=0;" parent="FPaeK-ZUEYd0aDJhkk1g-2" edge="1">
          <mxGeometry width="50" height="50" relative="1" as="geometry">
            <mxPoint x="-20" y="460" as="sourcePoint" />
            <mxPoint x="380" y="459" as="targetPoint" />
          </mxGeometry>
        </mxCell>
        <mxCell id="FPaeK-ZUEYd0aDJhkk1g-3" value="半可信代理" style="swimlane;startSize=20;" parent="FPaeK-ZUEYd0aDJhkk1g-1" vertex="1">
          <mxGeometry x="140" width="140" height="600" as="geometry" />
        </mxCell>
        <mxCell id="FPaeK-ZUEYd0aDJhkk1g-7" value="" style="endArrow=classic;html=1;rounded=0;" parent="FPaeK-ZUEYd0aDJhkk1g-3" edge="1">
          <mxGeometry width="50" height="50" relative="1" as="geometry">
            <mxPoint x="-5" y="40" as="sourcePoint" />
            <mxPoint x="160" y="40" as="targetPoint" />
          </mxGeometry>
        </mxCell>
        <mxCell id="FPaeK-ZUEYd0aDJhkk1g-8" value="" style="endArrow=classic;html=1;rounded=0;" parent="FPaeK-ZUEYd0aDJhkk1g-3" edge="1">
          <mxGeometry width="50" height="50" relative="1" as="geometry">
            <mxPoint x="-5" y="50" as="sourcePoint" />
            <mxPoint x="80" y="50" as="targetPoint" />
          </mxGeometry>
        </mxCell>
        <mxCell id="FPaeK-ZUEYd0aDJhkk1g-10" value="&lt;font style=&quot;font-size: 8px;&quot;&gt;公开&lt;/font&gt;" style="text;html=1;align=center;verticalAlign=middle;resizable=0;points=[];autosize=1;strokeColor=none;fillColor=none;" parent="FPaeK-ZUEYd0aDJhkk1g-3" vertex="1">
          <mxGeometry x="40" y="40" width="40" height="30" as="geometry" />
        </mxCell>
        <mxCell id="FPaeK-ZUEYd0aDJhkk1g-20" value="&lt;font style=&quot;font-size: 8px;&quot;&gt;代理公钥pkp，代理私钥sk&lt;sub style=&quot;&quot;&gt;p&lt;/sub&gt;&lt;/font&gt;" style="rounded=0;whiteSpace=wrap;html=1;" parent="FPaeK-ZUEYd0aDJhkk1g-3" vertex="1">
          <mxGeometry x="7.5" y="100" width="105" height="20" as="geometry" />
        </mxCell>
        <mxCell id="FPaeK-ZUEYd0aDJhkk1g-22" value="" style="endArrow=classic;html=1;rounded=0;exitX=0;exitY=0.5;exitDx=0;exitDy=0;" parent="FPaeK-ZUEYd0aDJhkk1g-3" source="FPaeK-ZUEYd0aDJhkk1g-21" edge="1">
          <mxGeometry width="50" height="50" relative="1" as="geometry">
            <mxPoint x="125" y="130" as="sourcePoint" />
            <mxPoint x="-60" y="130" as="targetPoint" />
          </mxGeometry>
        </mxCell>
        <mxCell id="FPaeK-ZUEYd0aDJhkk1g-23" value="" style="endArrow=classic;html=1;rounded=0;exitX=0;exitY=0.5;exitDx=0;exitDy=0;" parent="FPaeK-ZUEYd0aDJhkk1g-3" source="FPaeK-ZUEYd0aDJhkk1g-20" edge="1">
          <mxGeometry width="50" height="50" relative="1" as="geometry">
            <mxPoint y="110" as="sourcePoint" />
            <mxPoint x="-60" y="109.75999999999999" as="targetPoint" />
          </mxGeometry>
        </mxCell>
        <mxCell id="FPaeK-ZUEYd0aDJhkk1g-25" value="&lt;span style=&quot;font-size: 8px;&quot;&gt;pk&lt;sub&gt;B&lt;/sub&gt;&lt;/span&gt;" style="text;html=1;align=center;verticalAlign=middle;resizable=0;points=[];autosize=1;strokeColor=none;fillColor=none;" parent="FPaeK-ZUEYd0aDJhkk1g-3" vertex="1">
          <mxGeometry x="70" y="120" width="40" height="30" as="geometry" />
        </mxCell>
        <mxCell id="FPaeK-ZUEYd0aDJhkk1g-27" value="" style="endArrow=classic;html=1;rounded=0;" parent="FPaeK-ZUEYd0aDJhkk1g-3" edge="1">
          <mxGeometry width="50" height="50" relative="1" as="geometry">
            <mxPoint x="-5" y="160" as="sourcePoint" />
            <mxPoint x="80" y="160" as="targetPoint" />
          </mxGeometry>
        </mxCell>
        <mxCell id="FPaeK-ZUEYd0aDJhkk1g-28" value="&lt;font style=&quot;&quot;&gt;&lt;span style=&quot;font-size: 8px; text-wrap: wrap;&quot;&gt;rk&lt;/span&gt;&lt;sub style=&quot;text-wrap: wrap;&quot;&gt;&lt;font style=&quot;font-size: 6px;&quot;&gt;A→B&lt;/font&gt;&lt;/sub&gt;&lt;/font&gt;" style="text;html=1;align=center;verticalAlign=middle;resizable=0;points=[];autosize=1;strokeColor=none;fillColor=none;" parent="FPaeK-ZUEYd0aDJhkk1g-3" vertex="1">
          <mxGeometry x="25" y="150" width="40" height="30" as="geometry" />
        </mxCell>
        <mxCell id="FPaeK-ZUEYd0aDJhkk1g-40" value="" style="endArrow=none;dashed=1;html=1;dashPattern=1 3;strokeWidth=2;rounded=0;exitX=0;exitY=0.556;exitDx=0;exitDy=0;exitPerimeter=0;" parent="FPaeK-ZUEYd0aDJhkk1g-3" edge="1" source="FPaeK-ZUEYd0aDJhkk1g-1">
          <mxGeometry width="50" height="50" relative="1" as="geometry">
            <mxPoint x="-200" y="333" as="sourcePoint" />
            <mxPoint x="260" y="333" as="targetPoint" />
          </mxGeometry>
        </mxCell>
        <mxCell id="FPaeK-ZUEYd0aDJhkk1g-29" value="" style="endArrow=none;dashed=1;html=1;dashPattern=1 3;strokeWidth=2;rounded=0;" parent="FPaeK-ZUEYd0aDJhkk1g-3" edge="1">
          <mxGeometry width="50" height="50" relative="1" as="geometry">
            <mxPoint x="-140" y="180" as="sourcePoint" />
            <mxPoint x="260" y="180" as="targetPoint" />
          </mxGeometry>
        </mxCell>
        <mxCell id="FPaeK-ZUEYd0aDJhkk1g-11" value="" style="endArrow=none;dashed=1;html=1;dashPattern=1 3;strokeWidth=2;rounded=0;" parent="FPaeK-ZUEYd0aDJhkk1g-3" edge="1">
          <mxGeometry width="50" height="50" relative="1" as="geometry">
            <mxPoint x="-140" y="70" as="sourcePoint" />
            <mxPoint x="260" y="70" as="targetPoint" />
          </mxGeometry>
        </mxCell>
        <mxCell id="FPaeK-ZUEYd0aDJhkk1g-41" value="" style="endArrow=classic;html=1;rounded=0;" parent="FPaeK-ZUEYd0aDJhkk1g-3" edge="1">
          <mxGeometry width="50" height="50" relative="1" as="geometry">
            <mxPoint x="-5" y="320" as="sourcePoint" />
            <mxPoint x="80" y="320" as="targetPoint" />
          </mxGeometry>
        </mxCell>
        <mxCell id="FPaeK-ZUEYd0aDJhkk1g-43" value="&lt;font style=&quot;font-size: 8px;&quot;&gt;&lt;span style=&quot;text-align: left;&quot;&gt;发送密文&lt;/span&gt;&lt;span style=&quot;text-align: left;&quot;&gt;c&lt;/span&gt;&lt;sub style=&quot;text-align: left;&quot;&gt;A&lt;/sub&gt;&lt;/font&gt;" style="text;strokeColor=none;align=center;fillColor=none;html=1;verticalAlign=middle;whiteSpace=wrap;rounded=0;" parent="FPaeK-ZUEYd0aDJhkk1g-3" vertex="1">
          <mxGeometry x="18" y="295" width="60" height="30" as="geometry" />
        </mxCell>
        <mxCell id="FPaeK-ZUEYd0aDJhkk1g-44" value="&lt;font style=&quot;font-size: 8px;&quot;&gt;密文c&lt;sub&gt;A&lt;/sub&gt;={c&lt;sub&gt;1&lt;/sub&gt;,c&lt;sub&gt;2&lt;/sub&gt;,c&lt;sub&gt;3&lt;/sub&gt;,c&lt;sub&gt;4&lt;/sub&gt;}&lt;/font&gt;" style="rounded=0;whiteSpace=wrap;html=1;" parent="FPaeK-ZUEYd0aDJhkk1g-3" vertex="1">
          <mxGeometry x="25" y="340" width="90" height="20" as="geometry" />
        </mxCell>
        <mxCell id="FPaeK-ZUEYd0aDJhkk1g-45" value="" style="endArrow=classic;html=1;rounded=0;" parent="FPaeK-ZUEYd0aDJhkk1g-3" edge="1">
          <mxGeometry width="50" height="50" relative="1" as="geometry">
            <mxPoint x="70" y="360" as="sourcePoint" />
            <mxPoint x="70" y="390" as="targetPoint" />
          </mxGeometry>
        </mxCell>
        <mxCell id="FPaeK-ZUEYd0aDJhkk1g-47" value="" style="rounded=0;whiteSpace=wrap;html=1;dashed=1;" parent="FPaeK-ZUEYd0aDJhkk1g-3" vertex="1">
          <mxGeometry x="15" y="385" width="110" height="60" as="geometry" />
        </mxCell>
        <mxCell id="FPaeK-ZUEYd0aDJhkk1g-48" value="&lt;font style=&quot;font-size: 8px;&quot;&gt;C&#39;&lt;sub&gt;1&lt;/sub&gt;:&lt;/font&gt;&lt;font style=&quot;font-size: 7px;&quot;&gt;95123654&lt;/font&gt;&lt;font style=&quot;font-size: 6px;&quot;&gt;,&lt;/font&gt;&lt;font style=&quot;font-size: 7px;&quot;&gt;&lt;span style=&quot;font-size: 8px;&quot;&gt;C&#39;&lt;/span&gt;&lt;sub&gt;2&lt;/sub&gt;&lt;span style=&quot;font-size: 8px;&quot;&gt;:&lt;/span&gt;65423345&lt;/font&gt;&lt;div style=&quot;font-size: 11px; line-height: 50%;&quot;&gt;&lt;font style=&quot;font-size: 8px;&quot;&gt;C&#39;&lt;sub&gt;3&lt;/sub&gt;:&lt;/font&gt;&lt;font style=&quot;font-size: 7px;&quot;&gt;65205824&lt;/font&gt;&lt;font style=&quot;font-size: 6px;&quot;&gt;,&lt;/font&gt;&lt;font style=&quot;font-size: 7px;&quot;&gt;&lt;span style=&quot;font-size: 8px;&quot;&gt;C&#39;&lt;/span&gt;&lt;sub&gt;4&lt;/sub&gt;&lt;span style=&quot;font-size: 8px;&quot;&gt;:&lt;/span&gt;58236751&lt;/font&gt;&lt;/div&gt;" style="rounded=0;whiteSpace=wrap;html=1;" parent="FPaeK-ZUEYd0aDJhkk1g-3" vertex="1">
          <mxGeometry x="17.5" y="390" width="105" height="25" as="geometry" />
        </mxCell>
        <mxCell id="FPaeK-ZUEYd0aDJhkk1g-49" value="&lt;font style=&quot;font-size: 8px;&quot;&gt;重加密C&lt;sub&gt;B&lt;/sub&gt;={c&#39;&lt;sub&gt;1&lt;/sub&gt;,c&#39;&lt;sub&gt;2&lt;/sub&gt;,c&#39;&lt;sub&gt;3&lt;/sub&gt;,c&#39;&lt;sub&gt;4&lt;/sub&gt;}&lt;/font&gt;" style="rounded=0;whiteSpace=wrap;html=1;" parent="FPaeK-ZUEYd0aDJhkk1g-3" vertex="1">
          <mxGeometry x="25" y="421" width="90" height="20" as="geometry" />
        </mxCell>
        <mxCell id="FPaeK-ZUEYd0aDJhkk1g-4" value="数据请求者" style="swimlane;startSize=20;" parent="FPaeK-ZUEYd0aDJhkk1g-1" vertex="1">
          <mxGeometry x="280" width="120" height="600" as="geometry" />
        </mxCell>
        <mxCell id="FPaeK-ZUEYd0aDJhkk1g-9" value="&lt;font style=&quot;font-size: 8px;&quot;&gt;公开&lt;/font&gt;" style="text;html=1;align=center;verticalAlign=middle;resizable=0;points=[];autosize=1;strokeColor=none;fillColor=none;" parent="FPaeK-ZUEYd0aDJhkk1g-4" vertex="1">
          <mxGeometry x="3" y="30" width="40" height="30" as="geometry" />
        </mxCell>
        <mxCell id="FPaeK-ZUEYd0aDJhkk1g-21" value="&lt;font style=&quot;font-size: 8px;&quot;&gt;公钥pk&lt;sub style=&quot;&quot;&gt;B&lt;/sub&gt;，私钥sk&lt;sub style=&quot;&quot;&gt;B&lt;/sub&gt;&lt;/font&gt;" style="rounded=0;whiteSpace=wrap;html=1;" parent="FPaeK-ZUEYd0aDJhkk1g-4" vertex="1">
          <mxGeometry x="7.5" y="120" width="105" height="20" as="geometry" />
        </mxCell>
        <mxCell id="FPaeK-ZUEYd0aDJhkk1g-46" value="&lt;div style=&quot;text-align: left; font-size: 5px;&quot;&gt;&lt;span style=&quot;background-color: initial;&quot;&gt;使用&lt;/span&gt;&lt;span style=&quot;background-color: initial; text-align: center;&quot;&gt;rk&lt;/span&gt;&lt;sub style=&quot;background-color: initial; text-align: center;&quot;&gt;&lt;font style=&quot;font-size: 5px;&quot;&gt;A→B&lt;/font&gt;&lt;/sub&gt;&lt;span style=&quot;background-color: initial;&quot;&gt;进行重加密&lt;/span&gt;&lt;/div&gt;" style="text;strokeColor=none;align=center;fillColor=none;html=1;verticalAlign=middle;whiteSpace=wrap;rounded=0;" parent="FPaeK-ZUEYd0aDJhkk1g-4" vertex="1">
          <mxGeometry x="-66" y="358" width="60" height="30" as="geometry" />
        </mxCell>
        <mxCell id="FPaeK-ZUEYd0aDJhkk1g-50" value="" style="endArrow=classic;html=1;rounded=0;exitX=1;exitY=0.75;exitDx=0;exitDy=0;" parent="FPaeK-ZUEYd0aDJhkk1g-4" source="FPaeK-ZUEYd0aDJhkk1g-47" edge="1">
          <mxGeometry width="50" height="50" relative="1" as="geometry">
            <mxPoint x="-6" y="430" as="sourcePoint" />
            <mxPoint x="79" y="430" as="targetPoint" />
          </mxGeometry>
        </mxCell>
        <mxCell id="FPaeK-ZUEYd0aDJhkk1g-51" value="&lt;font style=&quot;font-size: 8px;&quot;&gt;&lt;span style=&quot;text-align: left;&quot;&gt;发送密文&lt;/span&gt;&lt;span style=&quot;text-align: left;&quot;&gt;c&lt;/span&gt;&lt;sub style=&quot;text-align: left;&quot;&gt;B&lt;/sub&gt;&lt;/font&gt;" style="text;strokeColor=none;align=center;fillColor=none;html=1;verticalAlign=middle;whiteSpace=wrap;rounded=0;" parent="FPaeK-ZUEYd0aDJhkk1g-4" vertex="1">
          <mxGeometry x="20" y="400" width="60" height="30" as="geometry" />
        </mxCell>
        <mxCell id="FPaeK-ZUEYd0aDJhkk1g-53" value="&lt;font style=&quot;font-size: 8px;&quot;&gt;密文C&lt;sub&gt;B&lt;/sub&gt;={c&#39;&lt;sub&gt;1&lt;/sub&gt;,c&#39;&lt;sub&gt;2&lt;/sub&gt;,c&#39;&lt;sub&gt;3&lt;/sub&gt;,c&#39;&lt;sub&gt;4&lt;/sub&gt;}&lt;/font&gt;" style="rounded=0;whiteSpace=wrap;html=1;" parent="FPaeK-ZUEYd0aDJhkk1g-4" vertex="1">
          <mxGeometry x="15" y="470" width="90" height="20" as="geometry" />
        </mxCell>
        <mxCell id="FPaeK-ZUEYd0aDJhkk1g-54" value="" style="endArrow=classic;html=1;rounded=0;" parent="FPaeK-ZUEYd0aDJhkk1g-4" edge="1">
          <mxGeometry width="50" height="50" relative="1" as="geometry">
            <mxPoint x="59.76999999999998" y="490" as="sourcePoint" />
            <mxPoint x="59.76999999999998" y="520" as="targetPoint" />
          </mxGeometry>
        </mxCell>
        <mxCell id="FPaeK-ZUEYd0aDJhkk1g-56" value="医疗信息m:38752864" style="rounded=0;whiteSpace=wrap;html=1;fontSize=8;" parent="FPaeK-ZUEYd0aDJhkk1g-4" vertex="1">
          <mxGeometry x="10" y="519" width="100" height="20" as="geometry" />
        </mxCell>
        <mxCell id="FPaeK-ZUEYd0aDJhkk1g-57" value="" style="endArrow=classic;html=1;rounded=0;" parent="FPaeK-ZUEYd0aDJhkk1g-4" edge="1">
          <mxGeometry width="50" height="50" relative="1" as="geometry">
            <mxPoint x="59.76999999999998" y="539" as="sourcePoint" />
            <mxPoint x="60" y="560" as="targetPoint" />
          </mxGeometry>
        </mxCell>
        <mxCell id="FPaeK-ZUEYd0aDJhkk1g-55" value="&lt;div style=&quot;text-align: center; font-size: 5px;&quot;&gt;&lt;span style=&quot;background-color: initial;&quot;&gt;使用&lt;/span&gt;&lt;span style=&quot;background-color: initial; font-size: 8px;&quot;&gt;sk&lt;/span&gt;&lt;sub style=&quot;background-color: initial;&quot;&gt;B&lt;/sub&gt;&lt;span style=&quot;background-color: initial;&quot;&gt;进&lt;/span&gt;&lt;span style=&quot;background-color: initial;&quot;&gt;行解密&lt;/span&gt;&lt;/div&gt;" style="text;strokeColor=none;align=center;fillColor=none;html=1;verticalAlign=middle;whiteSpace=wrap;rounded=0;" parent="FPaeK-ZUEYd0aDJhkk1g-4" vertex="1">
          <mxGeometry x="60" y="490" width="60" height="30" as="geometry" />
        </mxCell>
        <mxCell id="FPaeK-ZUEYd0aDJhkk1g-60" value="" style="edgeStyle=orthogonalEdgeStyle;rounded=0;orthogonalLoop=1;jettySize=auto;html=1;" parent="FPaeK-ZUEYd0aDJhkk1g-4" source="FPaeK-ZUEYd0aDJhkk1g-58" target="FPaeK-ZUEYd0aDJhkk1g-59" edge="1">
          <mxGeometry relative="1" as="geometry" />
        </mxCell>
        <mxCell id="FPaeK-ZUEYd0aDJhkk1g-58" value="&lt;div style=&quot;text-align: center; font-size: 5px;&quot;&gt;解码&lt;/div&gt;" style="text;strokeColor=none;align=center;fillColor=none;html=1;verticalAlign=middle;whiteSpace=wrap;rounded=0;" parent="FPaeK-ZUEYd0aDJhkk1g-4" vertex="1">
          <mxGeometry x="50" y="532" width="60" height="30" as="geometry" />
        </mxCell>
        <mxCell id="FPaeK-ZUEYd0aDJhkk1g-59" value="&lt;p style=&quot;line-height: 50%;&quot;&gt;&lt;font style=&quot;font-size: 6px;&quot;&gt;明文M，以患者A的信息为例，患者id：1367，姓名：张三，年龄：35，健康状况：发烧&lt;/font&gt;&lt;/p&gt;" style="rounded=0;whiteSpace=wrap;html=1;align=left;" parent="FPaeK-ZUEYd0aDJhkk1g-4" vertex="1">
          <mxGeometry x="3.75" y="561" width="112.5" height="30" as="geometry" />
        </mxCell>
        <mxCell id="FPaeK-ZUEYd0aDJhkk1g-6" value="" style="endArrow=classic;html=1;rounded=0;exitX=1;exitY=0.25;exitDx=0;exitDy=0;" parent="1" source="FPaeK-ZUEYd0aDJhkk1g-5" edge="1">
          <mxGeometry width="50" height="50" relative="1" as="geometry">
            <mxPoint x="365" y="370" as="sourcePoint" />
            <mxPoint x="295" y="208" as="targetPoint" />
          </mxGeometry>
        </mxCell>
        <mxCell id="FPaeK-ZUEYd0aDJhkk1g-62" value="&lt;p style=&quot;line-height: 80%;&quot;&gt;&lt;font style=&quot;font-size: 8px;&quot;&gt;&lt;b&gt;设置系统参数&lt;/b&gt;&lt;/font&gt;&lt;/p&gt;" style="text;strokeColor=none;align=left;fillColor=none;html=1;verticalAlign=middle;whiteSpace=wrap;rounded=0;" parent="1" vertex="1">
          <mxGeometry x="160" y="200" width="19" height="30" as="geometry" />
        </mxCell>
        <mxCell id="FPaeK-ZUEYd0aDJhkk1g-63" value="&lt;div style=&quot;line-height: 80%;&quot;&gt;&lt;span style=&quot;font-size: 8px;&quot;&gt;&lt;b&gt;解密算法&lt;/b&gt;&lt;/span&gt;&lt;/div&gt;" style="text;strokeColor=none;align=left;fillColor=none;html=1;verticalAlign=middle;whiteSpace=wrap;rounded=0;" parent="1" vertex="1">
          <mxGeometry x="160" y="683" width="19" height="30" as="geometry" />
        </mxCell>
        <mxCell id="K_Se0XkvJR9W0vBdDikR-2" value="&lt;p style=&quot;line-height: 80%;&quot;&gt;&lt;span style=&quot;font-size: 8px;&quot;&gt;&lt;b&gt;密钥生成&lt;/b&gt;&lt;/span&gt;&lt;br&gt;&lt;/p&gt;" style="text;strokeColor=none;align=left;fillColor=none;html=1;verticalAlign=middle;whiteSpace=wrap;rounded=0;" vertex="1" parent="1">
          <mxGeometry x="160" y="280" width="19" height="30" as="geometry" />
        </mxCell>
        <mxCell id="K_Se0XkvJR9W0vBdDikR-3" value="&lt;p style=&quot;line-height: 80%;&quot;&gt;&lt;span style=&quot;font-size: 8px;&quot;&gt;&lt;b&gt;加密算法&lt;/b&gt;&lt;/span&gt;&lt;br&gt;&lt;/p&gt;" style="text;strokeColor=none;align=left;fillColor=none;html=1;verticalAlign=middle;whiteSpace=wrap;rounded=0;" vertex="1" parent="1">
          <mxGeometry x="159.5" y="410" width="19" height="30" as="geometry" />
        </mxCell>
        <mxCell id="K_Se0XkvJR9W0vBdDikR-4" value="&lt;p style=&quot;line-height: 80%;&quot;&gt;&lt;span style=&quot;font-size: 8px;&quot;&gt;&lt;b&gt;重加密算法&lt;/b&gt;&lt;/span&gt;&lt;br&gt;&lt;/p&gt;" style="text;strokeColor=none;align=left;fillColor=none;html=1;verticalAlign=middle;whiteSpace=wrap;rounded=0;" vertex="1" parent="1">
          <mxGeometry x="160" y="550" width="19" height="30" as="geometry" />
        </mxCell>
      </root>
    </mxGraphModel>
  </diagram>
</mxfile>
